<svg width="653" height="264" viewBox="0 0 653 264" fill="none" xmlns="http://www.w3.org/2000/svg">
<g id="undraw_by_my_car_ttge 1">
<path id="Vector" opacity="0.1" d="M40.7255 87.3112C54.6061 111.262 36.8957 138.851 16.0813 159.647C9.10106 166.608 1.42807 173.895 0.44896 182.657C-0.716642 193.343 8.7547 203.168 19.9978 209.59C40.4924 221.293 68.4935 224.911 92.8845 219.008C113.965 213.92 131.689 202.385 152.95 197.734C188.53 189.954 226.216 202.853 256.661 218.917C278.208 230.284 301.287 244.104 327.264 241.677C345.554 239.967 361.073 230.162 371.596 218.612C376.678 213.014 381.101 206.791 388.508 203.026C392.91 200.787 398.079 199.601 403.254 198.757C450.478 191.048 500.585 209.865 547.183 200.187C578.654 193.648 603.751 174.643 619.35 152.768C634.949 130.893 642.236 106.184 648.304 81.7038C652.613 64.3067 656.19 45.5357 646.305 29.5277C635.822 12.5936 611.557 2.33031 587.173 0.411992C562.788 -1.50632 538.324 3.81102 515.858 11.3113C487.784 20.6891 460.269 33.8171 429.623 33.8629C408.756 33.8935 388.861 27.7569 368.906 23.1112C335.483 15.3107 300.848 11.4334 266.259 7.85628C233.163 4.43181 199.747 1.2414 166.451 3.27675C142.892 4.70658 122.091 11.5861 99.232 14.7663C84.3323 16.8423 69.3593 15.2751 54.7394 18.7912C36.7558 23.0909 18.2127 33.0692 17.2203 48.7668C16.2812 63.691 33.3589 74.5954 40.7255 87.3112Z" fill="#2F8CB4"/>
<path id="Vector_2" opacity="0.1" d="M322.805 263.779C482.364 263.779 611.713 250.295 611.713 233.662C611.713 217.03 482.364 203.546 322.805 203.546C163.246 203.546 33.8972 217.03 33.8972 233.662C33.8972 250.295 163.246 263.779 322.805 263.779Z" fill="#2F8CB4"/>
<g id="car">
<path id="Vector_3" d="M205.815 135.6C205.815 135.6 285.022 80.6823 339.781 80.6823C339.781 80.6823 405.707 69.5389 477.416 88.3728C549.124 107.207 575.612 131.627 595.493 124.457L511.97 127.111L205.815 135.6Z" fill="#8CD0F3"/>
<path id="Vector_4" opacity="0.1" d="M205.815 135.6C205.815 135.6 285.022 80.6823 339.781 80.6823C339.781 80.6823 405.707 69.5389 477.416 88.3728C549.124 107.207 575.612 131.627 595.493 124.457L511.97 127.111L205.815 135.6Z" fill="#8CD0F3"/>
<path id="Vector_5" d="M579.152 219.652H96.0873L109.368 161.905L191.514 138.203L579.152 149.258V219.652Z" fill="#121C3F"/>
<path id="Vector_6" d="M604.579 183.568V201.999C604.579 201.999 590.237 213.289 588.934 222.13C588.934 222.13 568.397 227.79 562.534 227.79C562 227.79 561.419 227.79 560.811 227.856C561.727 225.189 562.443 222.445 562.952 219.653C564.391 211.816 564.21 203.731 562.422 195.979C560.635 188.228 557.285 181.003 552.615 174.826C547.945 168.649 542.07 163.672 535.414 160.255C528.759 156.839 521.487 155.066 514.124 155.066C506.762 155.066 499.49 156.839 492.835 160.255C486.179 163.672 480.304 168.649 475.634 174.826C470.964 181.003 467.614 188.228 465.827 195.979C464.039 203.731 463.858 211.816 465.296 219.653C465.988 223.43 467.05 227.117 468.465 230.649H440.619C440.619 230.649 440.362 230.745 439.944 230.943C438.451 231.676 434.931 233.611 434.424 236.654H203.653L198.925 236.61C199.93 234.779 200.832 232.884 201.627 230.935C203.11 227.326 204.211 223.546 204.91 219.667C206.283 212.261 206.212 204.624 204.699 197.25C203.187 189.875 200.267 182.926 196.129 176.851C191.99 170.776 186.724 165.71 180.671 161.978C174.618 158.247 167.911 155.934 160.984 155.187C154.056 154.441 147.061 155.278 140.45 157.645C133.839 160.013 127.759 163.857 122.6 168.93C117.442 174.004 113.32 180.194 110.502 187.102C107.683 194.01 106.229 201.482 106.234 209.037C106.234 212.598 106.555 216.152 107.193 219.645C108.282 225.56 110.278 231.235 113.097 236.434C109.801 235.561 102.606 233.083 102.606 233.083C102.606 233.083 71.9705 229.55 64.1478 222.086L65.33 221.199L70.3425 217.482L68.0592 207.952C67.7836 207.55 67.5565 207.111 67.3836 206.647C66.7756 205.056 66.242 202.102 68.3902 198.392C71.6463 192.732 70.0182 172.572 70.0182 172.572C70.0182 172.572 114.347 139.325 201.701 131.891C201.701 131.891 203.789 133.65 208.098 134.017C211.017 134.273 214.955 133.885 219.961 131.891C219.961 131.891 227.128 135.424 257.791 116.327C257.791 116.327 309.949 77.4126 378.402 80.9609C378.402 80.9609 448.807 76.3569 508.781 101.488C534.627 112.309 554.292 118.079 568.309 121.129C581.253 123.951 589.38 124.472 593.102 124.516H593.183C594.399 124.516 595.122 124.516 595.378 124.516H595.486C595.486 124.516 595.486 132.939 595.899 142.888V142.939C596.047 146.399 596.25 150.043 596.534 153.584V153.804C597.317 163.664 598.668 172.623 601.012 174.397L604.579 183.568Z" fill="#2856B8"/>
<path id="Vector_7" d="M77.0641 171.765C77.0641 171.765 96.702 155.138 121.15 158.679C121.15 158.679 98.9043 177.784 88.8793 176.545L87.1702 174.954L77.0371 175.57C77.0371 175.57 75.5239 173.004 77.0641 171.765Z" fill="#8CD0F3"/>
<path id="Vector_8" opacity="0.2" d="M96.1278 200.533V210.349C96.1278 210.349 95.4523 219.726 87.6498 220.078L65.357 221.273L70.3627 217.556L68.0794 208.025C67.8026 207.627 67.5754 207.191 67.4039 206.728C69.4305 204.704 74.2066 201.288 83.9208 200.555L96.1278 200.533Z" fill="white"/>
<path id="Vector_9" opacity="0.2" d="M199.864 159.39L216.975 158.657C216.975 158.657 210.051 164.581 205.16 165.116C200.269 165.651 199.864 159.39 199.864 159.39Z" fill="white"/>
<path id="Vector_10" opacity="0.2" d="M235.883 215.723C235.883 215.723 390.629 192.373 428.034 199.8C428.034 199.8 439.032 200.599 443.193 205.371C447.354 210.144 443.193 207.05 443.193 207.05L235.883 215.723Z" fill="white"/>
<path id="Vector_11" opacity="0.5" d="M322.508 150.189C322.508 150.189 324.467 146.209 327.642 146.121L348.259 144.97C348.259 144.97 347.935 148.063 344.267 149.214L322.508 150.189Z" fill="#18218A"/>
<path id="Vector_12" opacity="0.5" d="M441.808 143.467C441.808 143.467 443.767 139.486 446.942 139.398L467.559 138.218C467.559 138.218 467.235 141.311 463.567 142.462L441.808 143.467Z" fill="#18218A"/>
<path id="Vector_13" d="M371.41 88.9226L355.589 133.951L298.546 134.017H283.86H271.086H260.041H247.53C247.53 134.017 255.15 127.947 267.424 120.212C271.478 117.646 276.078 114.904 281.07 112.148C285.664 109.597 290.609 107.016 295.804 104.567C299.857 102.632 304.126 100.77 308.49 99.0323C328.277 91.1806 350.516 85.9095 371.41 88.9226Z" fill="#8CD0F3"/>
<path id="Vector_14" d="M461.041 121.803C461.041 121.803 437.208 125.637 414.462 128.474C405.768 129.559 397.236 130.498 390.251 131.018L389.278 131.092C386.576 131.282 384.07 131.407 381.942 131.451C378.564 131.517 376.037 131.356 374.774 130.916L381.347 87.8449C381.347 87.8449 389.454 87.9402 401.445 88.578L404.066 88.732C406.558 88.8859 409.186 89.0619 411.929 89.2671C415.847 89.5604 419.975 89.9123 424.23 90.3375C444.78 92.3829 468.059 96.0558 482.8 102.669C514.165 116.759 461.041 121.803 461.041 121.803Z" fill="#8CD0F3"/>
<path id="Vector_15" d="M570.883 143.467V154.962C570.883 154.962 553.772 155.226 557.44 151.516C559.814 149.053 561.969 146.353 563.878 143.452L570.883 143.467Z" fill="#8CD0F3"/>
<path id="Vector_16" d="M596.52 153.789L582.624 154.969V141.15C582.624 141.15 589.062 131.334 595.5 142.213L595.871 142.851L596.52 153.789Z" fill="#8CD0F3"/>
<path id="Vector_17" opacity="0.2" d="M281.077 112.192L271.086 134.046H260.041L267.424 120.256C271.498 117.69 276.085 114.956 281.077 112.192Z" fill="white"/>
<path id="Vector_18" opacity="0.2" d="M308.49 99.0763L298.54 134.024H283.853L295.81 104.597C299.891 102.676 304.133 100.828 308.49 99.0763Z" fill="white"/>
<path id="Vector_19" opacity="0.2" d="M411.942 89.3038L390.264 131.026L389.292 131.099C386.589 131.29 384.083 131.414 381.955 131.458L401.458 88.622L404.079 88.7759C406.538 88.9226 409.186 89.0985 411.942 89.3038Z" fill="white"/>
<path id="Vector_20" opacity="0.2" d="M247.908 133.899L235.532 226.412L338.896 223.956L355.866 134.303L247.908 133.899Z" stroke="white" stroke-miterlimit="10"/>
<path id="Vector_21" opacity="0.5" d="M439.95 230.913C438.457 231.646 434.938 233.582 434.431 236.624H203.653L198.925 236.58C199.93 234.749 200.832 232.855 201.627 230.906L439.95 230.913Z" fill="#18218A"/>
</g>
<g id="LeftWheel">
<path id="Vector_22" d="M156.068 252.196C178.032 252.196 195.837 232.873 195.837 209.037C195.837 185.201 178.032 165.878 156.068 165.878C134.105 165.878 116.299 185.201 116.299 209.037C116.299 232.873 134.105 252.196 156.068 252.196Z" fill="#182A7C"/>
<path id="Vector_23" d="M187.967 209C187.982 217.906 184.844 226.477 179.201 232.944C173.559 239.411 165.844 243.278 157.649 243.748C149.454 244.218 141.406 241.254 135.167 235.468C128.929 229.683 124.976 221.518 124.126 212.66C123.275 203.802 125.593 194.929 130.599 187.872C135.605 180.815 142.917 176.115 151.025 174.742C159.133 173.368 167.418 175.427 174.167 180.493C180.916 185.559 185.615 193.245 187.292 201.962C187.737 204.277 187.963 206.635 187.967 209Z" fill="#3F8FFE"/>
<path id="Vector_24" opacity="0.5" d="M156.021 238.824C171.165 238.824 183.441 225.468 183.441 208.993C183.441 192.518 171.165 179.162 156.021 179.162C140.877 179.162 128.601 192.518 128.601 208.993C128.601 225.468 140.877 238.824 156.021 238.824Z" fill="#18218A"/>
<path id="Vector_25" d="M165.195 175.695V176.956L156.068 209.748L148.746 175.152C154.179 173.778 159.849 173.965 165.195 175.695V175.695Z" fill="#3F8FFE"/>
<path id="Vector_26" d="M165.127 242.321C159.9 244.001 154.364 244.207 149.043 242.922L156.062 209.748L165.127 242.321Z" fill="#3F8FFE"/>
<path id="Vector_27" d="M187.967 209C187.972 212.618 187.457 216.214 186.441 219.66H186.312L156.095 209.755L187.346 201.97C187.771 204.284 187.979 206.64 187.967 209Z" fill="#3F8FFE"/>
<path id="Vector_28" d="M156.068 209.748L125.852 219.653H125.615C123.932 213.927 123.632 207.828 124.744 201.94L156.068 209.748Z" fill="#3F8FFE"/>
<path id="Vector_29" d="M156.021 212.798C157.957 212.798 159.527 211.094 159.527 208.993C159.527 206.892 157.957 205.188 156.021 205.188C154.085 205.188 152.515 206.892 152.515 208.993C152.515 211.094 154.085 212.798 156.021 212.798Z" fill="#182A7C"/>
</g>
<g id="RightWheel">
<path id="Vector_30" d="M513.881 252.196C535.845 252.196 553.65 232.873 553.65 209.037C553.65 185.201 535.845 165.878 513.881 165.878C491.917 165.878 474.112 185.201 474.112 209.037C474.112 232.873 491.917 252.196 513.881 252.196Z" fill="#182A7C"/>
<path id="Vector_31" d="M545.787 209C545.801 217.906 542.663 226.477 537.021 232.944C531.379 239.411 523.663 243.278 515.468 243.748C507.274 244.218 499.226 241.254 492.987 235.468C486.748 229.683 482.795 221.518 481.945 212.66C481.095 203.802 483.412 194.929 488.418 187.872C493.424 180.815 500.737 176.115 508.845 174.742C516.953 173.368 525.237 175.427 531.987 180.493C538.736 185.559 543.434 193.245 545.111 201.962C545.556 204.277 545.783 206.635 545.787 209Z" fill="#3F8FFE"/>
<path id="Vector_32" opacity="0.5" d="M513.841 238.824C528.984 238.824 541.261 225.468 541.261 208.993C541.261 192.518 528.984 179.162 513.841 179.162C498.697 179.162 486.421 192.518 486.421 208.993C486.421 225.468 498.697 238.824 513.841 238.824Z" fill="#18218A"/>
<path id="Vector_33" d="M523.008 175.695V176.956L513.881 209.748L506.558 175.152C511.992 173.778 517.661 173.965 523.008 175.695V175.695Z" fill="#3F8FFE"/>
<path id="Vector_34" d="M522.947 242.321C517.72 244.001 512.184 244.207 506.862 242.922L513.881 209.748L522.947 242.321Z" fill="#3F8FFE"/>
<path id="Vector_35" d="M545.787 209C545.792 212.618 545.277 216.214 544.26 219.66H544.105L513.881 209.748L545.132 201.962C545.569 204.278 545.788 206.636 545.787 209V209Z" fill="#3F8FFE"/>
<path id="Vector_36" d="M513.881 209.748L483.664 219.653H483.428C481.745 213.927 481.445 207.828 482.557 201.94L513.881 209.748Z" fill="#3F8FFE"/>
<path id="Vector_37" d="M513.841 212.798C515.777 212.798 517.347 211.094 517.347 208.993C517.347 206.892 515.777 205.188 513.841 205.188C511.904 205.188 510.335 206.892 510.335 208.993C510.335 211.094 511.904 212.798 513.841 212.798Z" fill="#182A7C"/>
</g>
</g>
</svg>
